<!-- 皮肤科 -->
<?xml version="1.0" standalone="no"?><!DOCTYPE svg PUBLIC "-//W3C//DTD SVG 1.1//EN" "http://www.w3.org/Graphics/SVG/1.1/DTD/svg11.dtd"><svg t="1695277309371" class="icon" viewBox="0 0 1024 1024" version="1.1" xmlns="http://www.w3.org/2000/svg" p-id="13561" xmlns:xlink="http://www.w3.org/1999/xlink" width="100%" height="100%"><path d="M939.010327 320.408427c-93.699032-33.109072-226.511897-47.073108-278.262538-51.485605-27.319206-78.718853-88.789209-153.918555-187.998745-148.667971-86.846974 4.479011-161.671123 71.759347-183.962825 162.753781-32.855292 11.015891-113.368 33.408901-186.407504 17.48728-16.841573-3.660366-33.494858 7.005554-37.165458 23.867594-3.675716 16.851806 7.010671 33.494858 23.867594 37.165458 113.474424 24.741497 233.689367-24.177656 238.752686-26.276457 10.014074-4.143367 17.166985-13.186324 18.895349-23.887037 13.023618-80.807421 74.870198-125.923968 129.23334-128.724757 28.955472-1.50426 99.759051 7.579629 131.043568 123.906008 3.487428 12.927427 14.813381 22.199605 28.172643 23.054065 1.738597 0.11154 175.107133 11.57564 283.030122 49.707099 3.436262 1.214664 6.944156 1.794879 10.400884 1.794879 12.871145-0.005117 24.919553-8.016581 29.453822-20.837584C963.808106 343.996658 955.277826 326.153268 939.010327 320.408427z" fill="#ffffff" p-id="13562"></path><path d="M390.286937 420.701644c-17.248849 0-31.233352 13.979386-31.233352 31.233352l0 30.470989c0 17.253966 13.984503 31.233352 31.233352 31.233352s31.228235-13.979386 31.228235-31.233352l0-30.470989C421.515173 434.68103 407.535787 420.701644 390.286937 420.701644z" fill="#ffffff" p-id="13563"></path><path d="M634.056893 420.701644c-17.253966 0-31.233352 13.979386-31.233352 31.233352l0 30.470989c0 17.253966 13.979386 31.233352 31.233352 31.233352s31.233352-13.979386 31.233352-31.233352l0-30.470989C665.290245 434.68103 651.310859 420.701644 634.056893 420.701644z" fill="#ffffff" p-id="13564"></path><path d="M425.691285 604.542696c11.214413 18.047028 41.96988 48.588625 86.155219 48.588625 43.952025 0 75.094302-30.308283 86.572728-48.222281 9.302877-14.518668 5.073552-33.845853-9.455349-43.148729-14.528901-9.292644-33.835619-5.083785-43.148729 9.455349-0.121773 0.193405-13.379729 19.449981-33.967626 19.449981-19.98824 0-32.422434-18.09717-33.266661-19.368116-9.17087-14.426571-28.254507-18.799158-42.833551-9.770528C421.095617 570.635445 416.592047 589.892021 425.691285 604.542696z" fill="#ffffff" p-id="13565"></path><path d="M460.648448 296.475342c7.858992 0 15.728216-2.948145 21.798469-8.865925l11.072173-10.79281c12.353352-12.043291 12.607132-31.81766 0.568958-44.171012-12.048407-12.353352-31.822776-12.591783-44.165896-0.563842l-11.072173 10.79281c-12.353352 12.043291-12.607132 31.81766-0.568958 44.171012C444.401416 293.323559 452.525444 296.475342 460.648448 296.475342z" fill="#ffffff" p-id="13566"></path><path d="M899.623271 808.290123c-66.451458 44.073798-152.373363 35.656081-243.297189 26.790156-23.37436-2.287089-47.530526-4.646833-71.098291-5.998621-60.911278-3.477194-122.523521 0.397043-182.102455 4.148483-100.765985 6.344498-195.9703 12.343119-286.787702-14.569834-16.526395-4.931313-33.917484 4.524037-38.823214 21.065781-4.900613 16.541745 4.53427 33.917484 21.070898 38.818097 101.43625 30.073946 206.665897 23.424502 308.473607 17.029862 57.728796-3.629667 117.41927-7.411807 174.608783-4.128017 22.296819 1.270946 44.775786 3.477194 68.576865 5.794983 37.557384 3.680832 75.601862 7.401574 113.037473 7.401574 60.056817 0 118.537743-9.577123 170.867576-44.297902 14.376429-9.53619 18.300808-28.915563 8.763594-43.290969C933.388283 802.668079 913.9997 798.774399 899.623271 808.290123z" fill="#ffffff" p-id="13567"></path></svg>