<?xml version="1.0" standalone="no"?><!DOCTYPE svg PUBLIC "-//W3C//DTD SVG 1.1//EN" "http://www.w3.org/Graphics/SVG/1.1/DTD/svg11.dtd"><svg t="1695265964322" class="icon" viewBox="0 0 1024 1024" version="1.1" xmlns="http://www.w3.org/2000/svg" p-id="4296" xmlns:xlink="http://www.w3.org/1999/xlink" width="100%" height="100%"><path d="M519.68 781.312C277.674667 781.312 86.698667 546.133333 78.677333 536.234667a24.064 24.064 0 0 1 0-30.037334c8.021333-10.069333 198.997333-245.077333 441.002667-245.077333s432.810667 235.008 440.832 245.077333a23.722667 23.722667 0 0 1 0 30.037334c-8.021333 9.898667-198.997333 245.077333-440.832 245.077333zM129.194667 521.216c45.568 51.2 204.8 212.138667 390.485333 212.138667s344.917333-161.450667 390.485333-212.138667c-45.568-51.2-204.8-212.138667-390.485333-212.138667S174.762667 470.528 129.194667 521.216z" p-id="4297" fill="#ffffff"></path><path d="M519.68 381.098667a140.117333 140.117333 0 1 0 139.946667 140.117333 140.117333 140.117333 0 0 0-139.946667-140.117333z m0 223.232a83.114667 83.114667 0 1 1 0-166.229334 84.138667 84.138667 0 0 1 23.722667 3.754667 39.253333 39.253333 0 0 0 55.466666 55.637333 77.653333 77.653333 0 0 1 3.925334 23.722667 83.114667 83.114667 0 0 1-83.114667 83.114667z" p-id="4298" fill="#ffffff"></path></svg>