<!-- 内科 -->
<?xml version="1.0" standalone="no"?><!DOCTYPE svg PUBLIC "-//W3C//DTD SVG 1.1//EN" "http://www.w3.org/Graphics/SVG/1.1/DTD/svg11.dtd"><svg t="1695192901150" class="icon" viewBox="0 0 1024 1024" version="1.1" xmlns="http://www.w3.org/2000/svg" p-id="6585" xmlns:xlink="http://www.w3.org/1999/xlink" width="200" height="200"><path d="M753.152 696.661333a25.088 25.088 0 0 1-15.530667-5.290666 25.770667 25.770667 0 0 1-4.778666-36.010667c58.709333-76.288 64.512-169.301333 40.277333-217.941333a25.6 25.6 0 1 1 46.08-22.869334c31.914667 64.170667 26.624 178.176-45.397333 272.042667a25.770667 25.770667 0 0 1-20.650667 10.069333z" opacity=".6" p-id="6586" fill="#ffffff"></path><path d="M570.538667 911.36a403.285333 403.285333 0 0 1-90.112-10.922667 392.533333 392.533333 0 0 1-153.6-68.266666c-46.250667-38.741333-64-45.397333-70.656-45.397334a76.458667 76.458667 0 0 0-9.728 32.426667c-1.365333 7.168-3.925333 22.698667-9.216 64.853333v5.290667a25.6 25.6 0 0 1-51.2-8.533333v-3.072c4.437333-35.669333 7.509333-57.514667 9.386666-66.901334 6.314667-40.277333 20.138667-64.170667 42.325334-72.362666 36.522667-13.824 82.261333 20.650667 122.197333 53.930666a348.16 348.16 0 0 0 131.584 57.685334 360.789333 360.789333 0 0 0 78.506667 9.557333 195.413333 195.413333 0 0 0 85.333333-17.066667c108.544-51.2 180.053333-124.586667 213.162667-219.989333a411.648 411.648 0 0 0-20.992-305.152 161.28 161.28 0 0 0-108.544-85.333333 165.205333 165.205333 0 0 0-119.466667 24.405333 76.458667 76.458667 0 0 1-91.818667 9.557333c-31.573333-17.066667-48.810667-85.333333-52.906666-102.4a15.36 15.36 0 0 1-1.024-3.754666A25.429333 25.429333 0 0 1 494.933333 130.218667a26.282667 26.282667 0 0 1 30.549334 19.797333A184.32 184.32 0 0 0 553.642667 221.866667c13.482667 6.997333 19.968 7.168 35.328-4.949334a215.552 215.552 0 0 1 159.914666-34.133333c59.392 11.434667 107.690667 48.298667 143.530667 109.738667 0 0 1.024 1.706667 1.194667 2.218666a464.554667 464.554667 0 0 1 23.552 344.917334c-37.717333 108.885333-118.272 192.853333-238.933334 249.514666a244.565333 244.565333 0 0 1-107.690666 22.186667z" p-id="6587" fill="#ffffff"></path><path d="M112.469333 897.706667h-1.706666a25.6 25.6 0 0 1-23.893334-27.306667c1.024-16.042667 3.242667-31.232 5.461334-46.08v-5.632c1.024-6.656 1.877333-13.482667 2.730666-20.138667v-5.973333a388.608 388.608 0 0 1 18.261334-89.770667c27.477333-73.728 91.306667-111.616 159.232-94.208a225.962667 225.962667 0 0 1 64.341333 30.037334 85.333333 85.333333 0 0 0 40.277333 13.482666 76.458667 76.458667 0 0 0 32.426667-0.853333c72.704-17.066667 115.712-109.056 114.176-183.978667a161.792 161.792 0 0 0-9.045333-62.976c-1.877333-3.754667-3.072-4.608-11.264-9.728-4.608-2.901333-8.874667-5.632-13.312-8.874666l-1.706667-1.194667c-89.429333-76.458667-111.274667-193.877333-113.493333-207.018667a64.682667 64.682667 0 0 1 0-6.656 25.6 25.6 0 0 1 51.2 0c1.024 5.802667 19.797333 110.592 95.232 174.933334l9.216 5.973333a72.021333 72.021333 0 0 1 30.549333 30.72 209.237333 209.237333 0 0 1 14.336 84.48c2.048 96.938667-54.784 211.285333-153.6 234.837333a129.536 129.536 0 0 1-49.493333 1.877334A136.533333 136.533333 0 0 1 310.784 682.666667a170.666667 170.666667 0 0 0-49.493333-23.552c-42.325333-10.922667-80.042667 12.970667-98.304 62.293333a341.333333 341.333333 0 0 0-15.530667 77.653333v6.314667c0 7.338667-1.877333 14.506667-2.901333 21.674667v4.096c-2.218667 15.189333-4.437333 29.525333-5.290667 43.52a25.6 25.6 0 0 1-26.794667 23.04zM424.789333 170.666667z" p-id="6588" fill="#ffffff"></path></svg>