<?xml version="1.0" standalone="no"?><!DOCTYPE svg PUBLIC "-//W3C//DTD SVG 1.1//EN" "http://www.w3.org/Graphics/SVG/1.1/DTD/svg11.dtd"><svg t="1695277251135" class="icon" viewBox="0 0 1024 1024" version="1.1" xmlns="http://www.w3.org/2000/svg" p-id="10029" xmlns:xlink="http://www.w3.org/1999/xlink" width="100%" height="100%"><path d="M469.696 737.299c-61.672 0-126.086-42.6-154.814-103.077-27.93-58.817-18.293-121.499 26.4-171.947 34.402-38.823 80.387-54.492 129.438-44.185 58.436 12.312 112.191 61.337 130.716 119.226 0 0 0 0.013 0.021 0.013 10.773 33.76 9.997 68.71-2.262 101.083-22.883 60.478-68.122 96.478-124.104 98.772-1.797 0.062-3.613 0.115-5.395 0.115z m-29.137-247.762c-15.947 0-29.934 7.004-42.527 21.198-24.973 28.202-30.047 58.511-15.053 90.099 16.735 35.236 55.173 61.988 88.465 61.988 0.825 0 1.647-0.014 2.482-0.054 24.232-0.993 42.694-17.823 54.897-50.052 7.76-20.482 4.776-39.229 0.896-51.359-10.465-32.666-44.079-63.609-76.515-70.447-4.346-0.916-8.561-1.373-12.645-1.373z m1.565 10" fill="#ffffff" p-id="10030"></path><path d="M444.87 271.248l67.98 1.666-4.998 203.938-67.98-1.666zM332.426 612.352l48.845 47.308-126.85 130.971-48.846-47.308zM557.668 565.45l184 30.994-11.295 67.054-184-30.993zM244.102 519c-17.597 0-34.561-5.078-49.056-14.685-42.391-28.095-52.736-87.379-23.063-132.154 18.647-28.137 49.167-44.936 81.641-44.936 17.597 0 34.56 5.078 49.055 14.684 42.393 28.098 52.738 87.383 23.063 132.157C307.094 502.202 276.574 519 244.102 519z m9.522-131.775c-12.117 0-24.236 6.928-31.627 18.081-11.398 17.198-8.618 39.178 6.196 48.996 4.704 3.117 10.056 4.698 15.909 4.698 12.117 0 24.236-6.929 31.629-18.082 11.397-17.197 8.618-39.176-6.198-48.996-4.702-3.116-10.055-4.697-15.909-4.697zM687.896 503.467c-45.768 0-82.244-44.576-83.043-101.481-0.36-25.667 6.788-50.257 20.127-69.243 15.192-21.623 37.425-34.214 60.998-34.545 0.322-0.004 0.646-0.007 0.965-0.007 45.768 0 82.245 44.576 83.043 101.481 0.359 25.667-6.789 50.257-20.127 69.242-15.192 21.624-37.426 34.216-60.999 34.546-0.321 0.004-0.644 0.007-0.964 0.007z m-0.952-145.277l-0.124 0.001c-8.985 0.126-22.333 17.322-21.973 42.952 0.363 25.836 13.893 42.323 23.049 42.323l0.124-0.001c8.985-0.126 22.332-17.322 21.973-42.954-0.363-25.834-13.893-42.321-23.049-42.321zM538.756 926c-14.035 0-27.439-3.967-38.764-11.472-18.337-12.153-29.903-32.795-31.733-56.633-1.642-21.392 4.502-43.807 17.3-63.117 18.329-27.656 47.89-44.837 77.145-44.837 14.035 0 27.439 3.967 38.764 11.472 18.338 12.154 29.904 32.796 31.733 56.633 1.642 21.392-4.502 43.808-17.3 63.117C597.572 908.819 568.012 926 538.756 926z m23.949-116.059c-7.572 0-18.898 5.561-27.132 17.983-5.375 8.109-8.104 17.36-7.489 25.38 0.237 3.093 1.21 8.662 5.055 11.21 1.508 1 3.346 1.485 5.617 1.485 7.573 0 18.899-5.561 27.132-17.983 10.739-16.203 8.614-32.494 2.433-36.591-1.507-0.997-3.344-1.484-5.616-1.484z" fill="#ffffff" p-id="10031"></path><path d="M182 910c-66.168 0-120-53.832-120-120s53.832-120 120-120 120 53.832 120 120-53.832 120-120 120z m0-172c-28.673 0-52 23.327-52 52s23.327 52 52 52 52-23.327 52-52-23.327-52-52-52zM832 760c-66.168 0-120-53.832-120-120s53.832-120 120-120 120 53.832 120 120-53.832 120-120 120z m0-172c-28.673 0-52 23.327-52 52s23.327 52 52 52 52-23.327 52-52-23.327-52-52-52zM475 326c-66.168 0-120-53.832-120-120 0-31.971 11.989-61.965 33.758-84.457C410.942 98.623 440.859 86 473 86c31.974 0 62.328 12.348 85.47 34.771C582.027 143.594 595 173.862 595 206c0 66.168-53.832 120-120 120z m-2-172c-28.037 0-50 22.841-50 52 0 28.673 23.327 52 52 52s52-23.327 52-52c0-28.187-24.729-52-54-52z" fill="#ffffff" p-id="10032"></path></svg>