<?xml version="1.0" standalone="no"?>
<!DOCTYPE svg PUBLIC "-//W3C//DTD SVG 1.1//EN" "http://www.w3.org/Graphics/SVG/1.1/DTD/svg11.dtd">
<svg t="1695265372270" class="icon" viewBox="0 0 1024 1024" version="1.1" xmlns="http://www.w3.org/2000/svg" p-id="8968" xmlns:xlink="http://www.w3.org/1999/xlink" width="100%" height="100%"><path d="M819.2 455.509333c-2.048-10.581333-50.176-262.485333-142.848-347.818666a73.728 73.728 0 0 0-51.2-18.944h-112.64a74.410667 74.410667 0 0 0-34.133333 8.533333c-80.896 42.154667-180.565333 102.4-196.778667 150.869333a194.218667 194.218667 0 0 0 0 130.389334C242.005333 404.309333 155.648 470.869333 136.533333 580.266667c-18.773333 104.106667 27.648 216.746667 137.898667 335.018666a99.669333 99.669333 0 0 0 72.192 31.573334h279.893333a98.133333 98.133333 0 0 0 69.802667-29.184c37.376-37.376 114.346667-137.898667 62.464-295.594667a89.941333 89.941333 0 0 0 37.034667-24.234667c26.794667-29.696 34.986667-77.482667 23.381333-142.336zM757.76 563.2a39.765333 39.765333 0 0 1-18.261333 11.605333l-63.488-273.066666a67.242667 67.242667 0 0 0-87.722667-53.930667 70.485333 70.485333 0 0 0-47.445333 31.573333 68.266667 68.266667 0 0 0-5.290667 53.589334l50.176 198.144s-1.365333 1.536-1.365333 1.706666L477.866667 575.317333a76.629333 76.629333 0 0 0 28.330666 147.797334A74.922667 74.922667 0 0 0 535.893333 716.8l174.421334-75.605333c39.765333 124.074667-13.482667 203.264-51.2 240.64a47.104 47.104 0 0 1-34.133334 14.165333H345.941333a48.298667 48.298667 0 0 1-34.133333-15.36c-98.474667-105.472-140.458667-203.264-124.928-290.133333 20.650667-116.224 139.264-177.322667 140.458667-178.005334a25.941333 25.941333 0 0 0 12.8-14.677333 25.258667 25.258667 0 0 0-1.365334-19.626667 141.824 141.824 0 0 1-7.509333-113.493333c6.144-18.773333 62.634667-64.682667 171.690667-121.685333a23.893333 23.893333 0 0 1 11.264-2.730667h112.64a23.722667 23.722667 0 0 1 15.701333 5.461333c66.56 61.269333 114.346667 251.392 127.146667 319.317334 7.509333 46.933333 3.754667 81.066667-11.946667 98.133333z m-122.368-44.373333l-50.346667-198.826667a19.285333 19.285333 0 0 1 0-14.336 22.528 22.528 0 0 1 14.677334-7.68 55.978667 55.978667 0 0 1 10.581333-1.365333c9.728 0 13.141333 5.461333 15.701333 17.066666l65.365334 279.893334-175.786667 76.288a25.258667 25.258667 0 0 1-34.133333-30.549334 24.576 24.576 0 0 1 15.018666-17.066666l105.472-41.813334a51.2 51.2 0 0 0 33.450667-61.610666z" p-id="8969" fill="#ffffff"></path><path d="M326.997333 789.504a25.770667 25.770667 0 0 1-18.261333-7.509333c-45.226667-45.909333-68.266667-94.208-66.389333-143.872a172.714667 172.714667 0 0 1 50.005333-114.688 25.6 25.6 0 0 1 35.157333 37.376 121.685333 121.685333 0 0 0-34.133333 79.018666c0 34.133333 17.066667 70.826667 51.2 106.154667a25.6 25.6 0 0 1 0 36.181333 25.258667 25.258667 0 0 1-17.578667 7.338667z" opacity=".6" p-id="8970" fill="#ffffff"></path></svg>