<?xml version="1.0" standalone="no"?><!DOCTYPE svg PUBLIC "-//W3C//DTD SVG 1.1//EN" "http://www.w3.org/Graphics/SVG/1.1/DTD/svg11.dtd"><svg t="1695277269340" class="icon" viewBox="0 0 1024 1024" version="1.1" xmlns="http://www.w3.org/2000/svg" p-id="11153" xmlns:xlink="http://www.w3.org/1999/xlink" width="100%" height="100%"><path d="M354.474667 538.282667a90.453333 90.453333 0 0 1-93.184-87.04 90.453333 90.453333 0 0 1 93.184-86.869334 90.453333 90.453333 0 0 1 93.184 86.869334 90.453333 90.453333 0 0 1-93.184 87.04z m0-124.245334a40.789333 40.789333 0 0 0-43.52 37.205334 40.789333 40.789333 0 0 0 43.52 37.376 40.96 40.96 0 0 0 43.52-37.376 40.789333 40.789333 0 0 0-43.52-37.205334z" p-id="11154" fill="#ffffff"></path><path d="M520.704 510.122667a48.128 35.84 0 1 0 96.256 0 48.128 35.84 0 1 0-96.256 0Z" opacity=".6" p-id="11155" fill="#ffffff"></path><path d="M387.282434 655.09804a48.810667 36.693333 30 1 0 36.693334-63.554718 48.810667 36.693333 30 1 0-36.693334 63.554718Z" opacity=".6" p-id="11156" fill="#ffffff"></path><path d="M426.666667 843.605333a77.824 77.824 0 0 1-74.752-53.76 29.866667 29.866667 0 0 0-47.445334-12.970666 79.530667 79.530667 0 0 1-127.146666-84.138667 29.696 29.696 0 0 0-30.549334-38.4A79.530667 79.530667 0 0 1 92.672 512a29.866667 29.866667 0 0 0-2.048-49.152 79.530667 79.530667 0 0 1 40.618667-146.944 29.866667 29.866667 0 0 0 27.136-40.96 79.36 79.36 0 0 1 119.466666-94.890667 29.525333 29.525333 0 0 0 27.648 3.413334A29.184 29.184 0 0 0 324.266667 162.304a79.530667 79.530667 0 0 1 152.405333-6.826667 29.696 29.696 0 0 0 20.138667 19.114667 29.354667 29.354667 0 0 0 27.136-5.973333 79.530667 79.530667 0 0 1 127.146666 84.138666 29.866667 29.866667 0 0 0 30.72 38.4A79.530667 79.530667 0 0 1 733.866667 434.005333a29.696 29.696 0 0 0 2.218666 48.981334 79.530667 79.530667 0 0 1-40.618666 146.944 29.696 29.696 0 0 0-27.136 40.96 79.530667 79.530667 0 0 1-119.466667 95.061333 29.696 29.696 0 0 0-46.08 17.066667 77.824 77.824 0 0 1-73.557333 60.245333z m-102.4-123.562666a82.090667 82.090667 0 0 1 21.162666 2.901333 79.701333 79.701333 0 0 1 53.930667 51.2 28.501333 28.501333 0 0 0 29.525333 20.138667 29.184 29.184 0 0 0 27.648-22.698667 79.36 79.36 0 0 1 122.709334-45.909333 29.866667 29.866667 0 0 0 44.714666-35.669334A79.530667 79.530667 0 0 1 695.296 580.266667a29.866667 29.866667 0 0 0 15.189333-55.125334 79.36 79.36 0 0 1-5.802666-130.901333 29.866667 29.866667 0 0 0-19.968-52.906667 79.36 79.36 0 0 1-81.749334-102.4 29.696 29.696 0 0 0-47.616-31.402666 79.701333 79.701333 0 0 1-126.464-34.133334 29.696 29.696 0 0 0-57.002666 2.389334 79.530667 79.530667 0 0 1-122.88 46.08A29.866667 29.866667 0 0 0 204.8 256a79.36 79.36 0 0 1-72.192 109.226667 29.866667 29.866667 0 0 0-15.36 55.125333A78.677333 78.677333 0 0 1 153.6 484.181333a79.530667 79.530667 0 0 1-31.061333 67.072 29.696 29.696 0 0 0 20.138666 53.418667 79.530667 79.530667 0 0 1 81.578667 102.4 29.866667 29.866667 0 0 0 47.786667 31.573333 79.018667 79.018667 0 0 1 51.2-18.602666z" p-id="11157" fill="#ffffff"></path><path d="M665.6 925.866667a68.266667 68.266667 0 0 1-64.170667-45.909334 18.090667 18.090667 0 0 0-12.288-11.605333 18.432 18.432 0 0 0-17.066666 3.584 24.746667 24.746667 0 1 1-31.914667-37.888A68.266667 68.266667 0 0 1 648.533333 863.914667a18.261333 18.261333 0 0 0 34.986667-1.536 68.266667 68.266667 0 0 1 104.96-39.253334A18.261333 18.261333 0 0 0 816.469333 802.133333a68.266667 68.266667 0 0 1 61.781334-93.525333 18.261333 18.261333 0 0 0 9.386666-34.133333 68.266667 68.266667 0 0 1-4.949333-111.957334A18.261333 18.261333 0 0 0 870.4 529.066667a68.266667 68.266667 0 0 1-69.802667-87.722667 24.746667 24.746667 0 0 1 47.445334 14.677333 18.090667 18.090667 0 0 0 3.242666 17.066667 17.066667 17.066667 0 0 0 15.530667 6.826667 68.266667 68.266667 0 0 1 45.738667 122.026666 18.261333 18.261333 0 0 0-7.338667 15.36 18.432 18.432 0 0 0 8.704 14.677334 68.266667 68.266667 0 0 1-34.133333 125.610666 18.261333 18.261333 0 0 0-17.066667 25.088 68.266667 68.266667 0 0 1-102.4 81.237334 18.261333 18.261333 0 0 0-17.066667-2.218667 18.090667 18.090667 0 0 0-11.434666 12.8 68.266667 68.266667 0 0 1-62.805334 51.2z" opacity=".6" p-id="11158" fill="#ffffff"></path></svg>