 
<?xml version="1.0" standalone="no"?>
<!DOCTYPE svg PUBLIC "-//W3C//DTD SVG 1.1//EN" "http://www.w3.org/Graphics/SVG/1.1/DTD/svg11.dtd">
<svg viewBox="0 0 1024 1024" version="1.1" xmlns="http://www.w3.org/2000/svg" p-id="5253" xmlns:xlink="http://www.w3.org/1999/xlink" width="100%" height="100%">
<path d="M402.66 522.545c-18.266 0-33.075-14.81-33.075-33.075v-43.872c0-18.266 14.81-33.075 33.075-33.075s33.075 14.81 33.075 33.075v43.872c0 18.266-14.809 33.075-33.075 33.075z m218.67 0c-18.266 0-33.075-14.81-33.075-33.075v-43.872c0-18.266 14.81-33.075 33.075-33.075s33.075 14.81 33.075 33.075v43.872c0 18.266-14.809 33.075-33.075 33.075zM508.007 682.543c-44.461 0-87.177-17.409-120.285-49.047-13.211-12.613-13.679-33.552-1.066-46.763 12.661-13.234 33.56-13.671 46.77-1.058 20.737 19.808 47.223 30.717 74.581 30.717 28.763 0 56.234-11.895 77.391-33.479 12.79-13.049 33.753-13.251 46.77-0.484 13.049 12.783 13.274 33.721 0.484 46.77-33.689 34.4-77.957 53.345-124.645 53.344z m111.3-397.384l-30.768 16.828-33.656-61.534 30.768-16.828c41.704-22.811 43.072-81.154 29.486-114.899L602.03 76.198 667.101 50l13.09 32.529c29.788 73.961 6.863 165.575-60.884 202.63z" fill="#ffffff" p-id="5254"></path><path d="M883.136 389.091c-28.533-89.056-86.477-162.762-161.108-211.218-1.096 18.501-2.306 23.766-5.996 38.127-3.195 12.435-5.031 18-10.67 30.929 57.894 43.854 101.364 107.129 120.428 182.013 3.892 15.294 18.201 25.832 33.818 24.862 0.178-0.007 3.02-0.186 3.343-0.209 34.464 0.064 62.484 29.716 62.484 66.149 0 36.475-28.085 66.143-62.597 66.143-2.02 0-4.006-0.121-5.96-0.315-15.763-1.559-30.411 8.213-34.981 23.36C779.745 748.79 654.568 842.75 510.413 842.75c-144.073 0-269.235-93.912-311.435-233.673-4.248-14.034-18.023-23.449-32.591-23.449-0.816 0-1.648 0.031-2.469 0.097-0.913 0.064-1.816 0.162-2.746 0.162-34.521 0-62.605-29.668-62.605-66.143s28.084-66.149 61.24-66.19c0.793 0.056 1.587 0.099 2.382 0.129 15.318 0.501 29.078-9.94 32.897-24.887C232.264 283.042 361.931 181.25 510.413 181.25c21.426 0 42.453 2.136 62.871 6.203C580 183 588.791 166.885 590 156c1-9-3-30-4.797-33.625a387.93 387.93 0 0 0-74.791-7.276c-170.882 0-321.003 111.773-372.901 274.581C77.78 401.13 32.416 455.096 32.416 519.743c0 66.676 48.247 121.989 110.756 131 56.903 155.362 201.671 258.156 367.24 258.156 165.441 0 310.063-102.583 367.087-257.72 64.115-7.493 114.083-63.583 114.083-131.437 0-65.849-47.06-120.622-108.446-130.651z" fill="#ffffff" p-id="5255"></path></svg>