<?xml version="1.0" standalone="no"?><!DOCTYPE svg PUBLIC "-//W3C//DTD SVG 1.1//EN" "http://www.w3.org/Graphics/SVG/1.1/DTD/svg11.dtd"><svg t="1695277293589" class="icon" viewBox="0 0 1024 1024" version="1.1" xmlns="http://www.w3.org/2000/svg" p-id="12329" xmlns:xlink="http://www.w3.org/1999/xlink" width="100%" height="100%"><path d="M512 877.9L158.4 524.4c-41.1-41.1-63.7-95.7-63.7-153.7 0-58.1 22.6-112.7 63.7-153.7 41.1-41.1 95.7-63.7 153.8-63.7 58.1 0 112.7 22.6 153.7 63.7l46.1 46 46.1-46.1c28.5-28.5 64.2-48.4 103.1-57.7 35.5-8.5 72.9-7.9 108.1 1.7 36.3 9.9 69.6 29.3 96.4 56 41 41.1 63.6 95.7 63.6 153.7s-22.6 112.6-63.6 153.7l-58.3 58.3-78.4 78.2-217 217.1zM182.8 500L512 829.1l192.7-192.7 78.3-78.2 58.3-58.3c71.2-71.3 71.2-187.4 0-258.7-45.3-45.3-109.6-63.5-172.1-48.5-32.8 7.8-62.8 24.6-86.7 48.5L512 311.8l-70.5-70.5c-34.5-34.6-80.4-53.6-129.3-53.6-48.9 0-94.8 19-129.4 53.6s-53.6 80.5-53.6 129.3c0 48.9 19.1 94.8 53.6 129.4z" fill="#ffffff" p-id="12330"></path><path d="M359 512.1c-17.5-17.5-26.3-40.5-26.3-63.4 0-23 8.8-45.9 26.3-63.4 35-35 91.9-35 126.9 0l26.1 26.1 26.1-26.1c12.2-12.2 27-20.1 42.5-23.8 29.3-7 61.5 1 84.4 23.8 35 35 35 91.8 0 126.9l-26.1 26.1-35.1 35-91.8 91.8-101.9-101.9-51.1-51.1z" fill="#ffffff" opacity=".5" p-id="12331"></path><path d="M201.7 425.8c-9.5 0-17.2-7.7-17.2-17.2 0-45.2 17.6-87.6 49.5-119.5 31.9-31.9 74.3-49.5 119.5-49.5 9.5 0 17.2 7.7 17.2 17.2S363 274 353.5 274C279.3 274 219 334.3 219 408.5c-0.1 9.6-7.8 17.3-17.3 17.3z" fill="#ffffff" p-id="12332"></path><path d="M270.6 439.6c-9.5 0-17.2-7.7-17.2-17.2 0-62.7 51-113.8 113.8-113.8 9.5 0 17.2 7.7 17.2 17.2s-7.7 17.2-17.2 17.2c-43.7 0-79.3 35.6-79.3 79.3 0 9.6-7.8 17.3-17.3 17.3zM836.1 425.8c-9.5 0-17.2-7.7-17.2-17.2 0-74.2-60.3-134.5-134.5-134.5-9.5 0-17.2-7.7-17.2-17.2s7.7-17.2 17.2-17.2c45.2 0 87.6 17.6 119.5 49.5 31.9 31.9 49.5 74.3 49.5 119.5 0 9.4-7.7 17.1-17.3 17.1z" fill="#ffffff" p-id="12333"></path><path d="M767.2 439.6c-9.5 0-17.2-7.7-17.2-17.2 0-43.7-35.6-79.3-79.3-79.3-9.5 0-17.2-7.7-17.2-17.2s7.7-17.2 17.2-17.2c62.7 0 113.8 51 113.8 113.8-0.1 9.4-7.8 17.1-17.3 17.1z" fill="#ffffff" p-id="12334"></path></svg>