<!-- 五官科 -->
<?xml version="1.0" standalone="no"?><!DOCTYPE svg PUBLIC "-//W3C//DTD SVG 1.1//EN" "http://www.w3.org/Graphics/SVG/1.1/DTD/svg11.dtd"><svg t="1695193192746" class="icon" viewBox="0 0 1024 1024" version="1.1" xmlns="http://www.w3.org/2000/svg" p-id="9941" xmlns:xlink="http://www.w3.org/1999/xlink" width="200" height="200"><path d="M619.6 912.3l-75.2-0.6c0.8-107.1-13-205.5-38.7-277-18.3-50.7-51.9-113.5-108.2-124.8-39-7.8-71.8 2.9-100.2 32.9-22.5 23.7-32.9 49.9-33 50.2L194 566.2c1.6-4.1 16.2-40.9 48.7-75.1 20.2-21.3 43.1-37.1 68-46.9 31.6-12.4 65.7-15.1 101.5-8 38.5 7.7 72.7 28.3 101.7 61.2 25 28.4 46 66 62.5 111.8 29.1 80.9 44 185.6 43.2 303.1z" fill="#ffffff" opacity=".5" p-id="9942"></path><path d="M740.8 929.2H425.2v-79.9c0-32-26-58-58-58h-62.7c-23.3 0-42.3-19-42.3-42.3V610.4l-76.5-28.7c-7.7-2.9-14-8.9-17.1-16.6s-3-16.3 0.5-23.8l33.1-71.8c20.4-44.2 33.2-89.4 37.9-134.4 6.2-59.1 22.3-104.3 49.3-138.2 24.1-30.3 53.2-47.8 81.4-64.7 26-15.6 77.1-29.2 130.1-34.8 48.2-5 119.8-5.7 187.7 19.4 35.3 13.1 65.8 31.9 90.6 55.8 27.9 27 48.8 60.8 62 100.5 17.9 53.6 21 102.6 9.7 149.7-10 41.5-29.8 76.7-48.9 110.8-20.4 36.3-39.7 70.6-48 112-16.9 84.7 2 178.4 12.2 228.8 1.6 7.7 2.9 14.3 3.9 19.8 1.5 8.7-0.8 17.5-6.5 24.3-5.7 6.9-14 10.7-22.8 10.7z m-4.7-28.8z m-276.4-5.6h275.4c-0.8-3.9-1.7-8.4-2.7-13.4-10.7-52.7-30.5-150.9-12.2-242.4 9.3-46.7 30.9-85 51.7-122.1 36.9-65.6 71.7-127.6 36.6-232.7-21.7-65.2-66.1-110.6-131.8-134.9-61.7-22.8-127.7-22.1-172.2-17.5-54.8 5.7-98.5 19.6-116 30-52.4 31.5-102 61.2-114.2 176.9-5.1 48.7-18.9 97.6-40.9 145.2l-31 67.2 74.8 28.1c11.6 4.3 19.3 15.5 19.3 27.9V749c0 4.3 3.5 7.8 7.8 7.8H367c51 0 92.5 41.5 92.5 92.5v45.5z" fill="#ffffff" p-id="9943"></path><path d="M643.1 496.6c-9.5 0-17.2-7.7-17.2-17.2s7.7-17.2 17.2-17.2c32 0 58-26 58-58s-26-58-58-58c-9.5 0-17.2-7.7-17.2-17.2s7.7-17.2 17.2-17.2c51 0 92.5 41.5 92.5 92.5 0 50.8-41.5 92.3-92.5 92.3z" fill="#ffffff" p-id="9944"></path></svg>