<!-- 外科 -->
<?xml version="1.0" standalone="no"?><!DOCTYPE svg PUBLIC "-//W3C//DTD SVG 1.1//EN" "http://www.w3.org/Graphics/SVG/1.1/DTD/svg11.dtd"><svg t="1695192933859" class="icon" viewBox="0 0 1024 1024" version="1.1" xmlns="http://www.w3.org/2000/svg" p-id="7694" xmlns:xlink="http://www.w3.org/1999/xlink" width="200" height="200"><path d="M637.781728 586.145697c-17.247826 0-31.233352 13.979386-31.233352 31.233352l0 30.469965c0 17.252943 13.984503 31.233352 31.233352 31.233352s31.233352-13.979386 31.233352-31.233352l0-30.469965C669.01508 600.125083 655.030577 586.145697 637.781728 586.145697z" fill="#ffffff" p-id="7695"></path><path d="M881.550661 586.145697c-17.247826 0-31.233352 13.979386-31.233352 31.233352l0 30.469965c0 17.252943 13.984503 31.233352 31.233352 31.233352s31.233352-13.979386 31.233352-31.233352l0-30.469965C912.784012 600.125083 898.79951 586.145697 881.550661 586.145697z" fill="#ffffff" p-id="7696"></path><path d="M836.46072 727.202317c-14.544251-9.323343-33.845853-5.053086-43.148729 9.455349-0.121773 0.193405-13.379729 19.448958-33.967626 19.448958-20.008706 0-32.4429-18.127869-33.276894-19.368116-9.17087-14.436804-28.27395-18.818601-42.828434-9.760295-14.655791 9.099239-19.154245 28.355815-10.04989 43.00649 11.209296 18.046005 41.973974 48.587602 86.155219 48.587602 43.957141 0 75.098395-30.308283 86.571704-48.222281C855.218946 755.822145 850.984505 736.505193 836.46072 727.202317z" fill="#ffffff" p-id="7697"></path><path d="M922.18922 887.128703 459.417411 887.128703c-17.247826 0-31.233352 13.979386-31.233352 31.233352s13.984503 31.233352 31.233352 31.233352l462.770785 0c17.247826 0 31.233352-13.979386 31.233352-31.233352S939.437046 887.128703 922.18922 887.128703z" fill="#ffffff" p-id="7698"></path><path d="M500.767168 705.434547c2.084475-2.206248 3.833305-4.717442 5.195326-7.432273l2.918469-5.825682c3.218298-6.42534 4.122901-13.756305 2.562359-20.771069l-8.413624-37.841863 16.897855-21.147646c10.767228-13.481036 8.571213-33.134655-4.90573-43.900859-13.475919-10.767228-33.129538-8.571213-43.895743 4.900613l-26.230408 32.828686c-5.90243 7.391341-8.138354 17.050328-6.089695 26.281573l8.748245 39.33589c-0.426719 0.539282-0.884137 1.098008-1.362021 1.697665C299.587216 855.956749 207.474308 892.385427 164.727739 897.519354c-9.525957-0.274246-21.228487-3.019777-27.435862-6.161327l254.260891-312.940338c9.846252-12.119015 9.206686-29.575596-1.337461-40.932248-2.292206-2.908236-6.476505-10.003841-7.167237-12.261255-1.087774-5.409197 3.14155-11.946077 4.316306-13.359262 0.38681-0.426719 0.762363-0.854461 1.12359-1.301645l293.820885-357.990371c0.224104-0.274246 0.442068-0.549515 0.655939-0.828878 10.17678-13.288654 25.010627-21.833261 41.781592-24.054859 16.775059-2.242064 33.32192 2.14485 46.610574 12.32777 27.603685 21.137413 32.859385 60.788481 12.180414 87.811951l-218.138182 271.427876c-10.807137 13.441127-8.667404 33.103956 4.77884 43.911092 13.461593 10.796904 33.109072 8.67252 43.911092-4.789073L832.67858 266.382976c20.318768-26.535353 29.072129-59.491952 24.654516-92.799546-4.417613-33.311687-21.467941-62.847373-48.003294-83.161025-26.53126-20.318768-59.481719-29.113061-92.799546-24.654516-33.124422 4.39203-62.511729 21.274536-82.815147 47.556109L340.52458 470.536656c-4.996804 5.78475-25.676799 32.229029-18.732643 66.939575 1.260713 6.303566 3.90903 12.932544 7.03523 19.083637L77.916581 865.381399c-4.524037 5.561669-6.995321 12.516058-6.995321 19.693528l0 5.825682c0 0.864694 0.035816 1.728364 0.106424 2.593058 3.828188 45.944402 50.591235 66.512856 95.233991 66.512856 1.077541 0 2.160199-0.061398 3.232624-0.172939 91.777263-9.546424 201.25056-92.702332 325.384765-247.139703C497.685993 709.206454 499.66916 706.705494 500.767168 705.434547z" fill="#ffffff" p-id="7699"></path></svg>